<!-- Generated by IcoMoon.io -->
<svg version="1.1" xmlns="http://www.w3.org/2000/svg" fill="#D3AD2E" width="512" height="512" viewBox="0 0 512 512">
<title></title>
<g id="icomoon-ignore">
</g>
<path d="M388 0c-11 0-15.8 6.9-19.8 14.1 0 0-159.1 282.1-164.3 291.4 0.3 0.5 104.9 192.5 104.9 192.5 3.7 6.5 9.3 14.1 20.6 14.1h73.8c4.4 0 7.9-1.7 9.8-4.7 2-3.2 1.9-7.3-0.2-11.4l-104-190.3c-0.1-0.2-0.1-0.3 0-0.5l163.5-289.1c2-4.1 2.1-8.2 0.2-11.4-1.9-3-5.4-4.7-9.8-4.7h-74.7z"></path>

<path d="M77.8 101.1c-4.4 0-8.2 1.6-10.1 4.6-1.9 3.2-1.6 7.2 0.4 11.3l49.9 86.4c0.1 0.2 0.1 0.3 0 0.4l-78.4 138.6c-2 4.1-1.9 8.2 0 11.3 1.9 3 5.2 5 9.6 5h73.8c11 0 16.4-7.5 20.1-14.3 0 0 76.7-135.7 79.7-141-0.3-0.5-50.8-88.5-50.8-88.5-3.7-6.5-9.2-13.8-20.6-13.8h-73.6z"></path>
</svg>
